<svg xmlns="http://www.w3.org/2000/svg" width="1200" height="700" viewBox="0 0 1200 700" role="img" aria-labelledby="title desc">
  <title id="title">CVSS User Interaction explained</title>
  <desc id="desc">A focused diagram explaining the User Interaction metric in a CVSS vector string.</desc>
  <defs>
    <style>
      .title { fill: #ffffff; font: 700 46px 'Segoe UI', Arial, sans-serif; }
      .subtitle { fill: #d4d8f3; font: 400 24px 'Segoe UI', Arial, sans-serif; }
      .panelTitle { fill: #ffffff; font: 700 28px 'Segoe UI', Arial, sans-serif; }
      .body { fill: #d7daf5; font: 400 24px 'Segoe UI', Arial, sans-serif; }
      .code { fill: #f4f6ff; font: 700 22px 'Consolas', 'Courier New', monospace; }
      .num { fill: #ffffff; font: 700 26px 'Segoe UI', Arial, sans-serif; }
    </style>
  </defs>
  <rect width="1200" height="700" fill="#140f44"/>
  <text x="62" y="98" class="title">User Interaction (UI): None</text>
  <text x="62" y="142" class="subtitle">The exploit can succeed without the victim clicking, opening, approving, or typing anything.</text>
  <rect x="62" y="200" width="640" height="152" rx="22" fill="#221d60" stroke="#5b50b5" stroke-width="2"/>
  <text x="98" y="270" class="code">CVSS:3.1/AV:N/AC:L/PR:L/UI:N</text>
  <text x="98" y="304" class="code">S:U/C:H/I:H/A:H</text>
  <path d="M 606 352 L 606 430 L 846 430" fill="none" stroke="#ff5f5f" stroke-width="8" stroke-linecap="round"/>
  <polygon points="846,430 812,412 812,448" fill="#ff5f5f"/>
  <rect x="790" y="234" width="336" height="254" rx="24" fill="#2f2a68"/>
  <text x="824" y="288" class="panelTitle">UI:N means:</text>
  <text x="824" y="336" class="body">No extra human action is needed</text>
  <text x="824" y="372" class="body">after the attacker reaches the target.</text>
  <text x="824" y="428" class="body">The attack can often be automated</text>
  <text x="824" y="464" class="body">and repeated at scale.</text>
  <rect x="62" y="430" width="640" height="170" rx="22" fill="#1f1a57"/>
  <rect x="96" y="470" width="42" height="42" rx="8" fill="#4d458f"/>
  <text x="110" y="500" class="num">1</text>
  <text x="158" y="500" class="body">No victim assistance is required.</text>
  <rect x="96" y="526" width="42" height="42" rx="8" fill="#4d458f"/>
  <text x="110" y="556" class="num">2</text>
  <text x="158" y="556" class="body">Automation becomes easier.</text>
</svg>