<svg xmlns="http://www.w3.org/2000/svg" width="1200" height="920" viewBox="0 0 1200 920" role="img" aria-labelledby="title desc">
  <title id="title">Cross-site scripting risk assessment</title>
  <desc id="desc">An example risk assessment showing medium likelihood, medium impact, and medium overall risk for XSS.</desc>
  <defs>
    <style>
      .bg { fill: #150f45; }
      .title { fill: #ffffff; font: 700 56px 'Segoe UI', Arial, sans-serif; }
      .heading { fill: #e7e9ff; font: 700 28px 'Segoe UI', Arial, sans-serif; }
      .body { fill: #d7daf5; font: 400 20px 'Segoe UI', Arial, sans-serif; }
      .axis { stroke: #111111; stroke-width: 5; }
      .grid { stroke: #7d7d7d; stroke-width: 1.5; fill: none; }
      .label { fill: #1c1c1c; font: 700 24px 'Segoe UI', Arial, sans-serif; }
      .matrix-label { fill: #d7daf5; font: 700 26px 'Segoe UI', Arial, sans-serif; }
      .cell-low { fill: #76b947; }
      .cell-mid { fill: #ffc528; }
      .cell-high { fill: #f22b2b; }
    </style>
  </defs>
  <rect width="1200" height="920" class="bg"/>
  <text x="32" y="82" class="title">Risk Example: Cross-Site Scripting</text>

  <text x="60" y="182" class="heading">Likelihood</text>
  <text x="60" y="232" class="body">Medium because exploitation may require</text>
  <text x="60" y="268" class="body">user interaction or a specific page flow.</text>

  <text x="450" y="182" class="heading">Impact</text>
  <text x="450" y="232" class="body">Medium because XSS can steal sessions,</text>
  <text x="450" y="268" class="body">deface pages, or execute browser actions.</text>

  <text x="930" y="182" class="heading">Risk</text>
  <text x="930" y="232" class="body">Medium</text>

  <rect x="170" y="430" width="170" height="145" class="cell-low"/>
  <rect x="340" y="430" width="170" height="145" class="cell-mid"/>
  <rect x="510" y="430" width="170" height="145" class="cell-high"/>
  <rect x="170" y="575" width="170" height="145" class="cell-low"/>
  <rect x="340" y="575" width="340" height="145" class="cell-mid"/>
  <rect x="170" y="720" width="510" height="120" class="cell-low"/>

  <rect x="170" y="430" width="510" height="410" class="grid"/>
  <line x1="340" y1="430" x2="340" y2="840" class="grid"/>
  <line x1="510" y1="430" x2="510" y2="720" class="grid"/>
  <line x1="170" y1="575" x2="680" y2="575" class="grid"/>
  <line x1="170" y1="720" x2="680" y2="720" class="grid"/>

  <line x1="110" y1="840" x2="110" y2="392" class="axis"/>
  <line x1="110" y1="392" x2="740" y2="392" class="axis"/>
  <polygon points="740,392 710,376 710,408" fill="#111111"/>
  <polygon points="110,392 94,422 126,422" fill="#111111" transform="rotate(-90 110 392)"/>

  <text x="255" y="362" text-anchor="middle" class="matrix-label">Low</text>
  <text x="425" y="362" text-anchor="middle" class="matrix-label">Medium</text>
  <text x="595" y="362" text-anchor="middle" class="matrix-label">High</text>
  <text x="55" y="800" class="matrix-label">Low</text>
  <text x="22" y="655" class="matrix-label">Medium</text>
  <text x="40" y="508" class="matrix-label">High</text>
  <text x="385" y="328" class="matrix-label">Impact</text>
  <text x="44" y="650" transform="rotate(-90 44 650)" class="matrix-label">Likelihood</text>
</svg>